<?xml version="1.0" encoding="utf-8"?>
<!-- Generator: Adobe Illustrator 27.9.2, SVG Export Plug-In . SVG Version: 6.00 Build 0)  -->
<svg version="1.1" id="Layer_1" xmlns="http://www.w3.org/2000/svg" xmlns:xlink="http://www.w3.org/1999/xlink" x="0px" y="0px"
	 viewBox="0 0 283.44 65.76" style="enable-background:new 0 0 283.44 65.76;" xml:space="preserve">
<style type="text/css">
	.st0{fill:#FFFFFF;}
</style>
<g>
	<g>
		<rect x="33.49" y="2.28" class="st0" width="7.3" height="32.29"/>
		<rect x="118.43" y="2.28" class="st0" width="7.3" height="32.29"/>
		<rect x="150.25" y="2.28" class="st0" width="7.3" height="32.29"/>
		
			<rect x="235.49" y="7.62" transform="matrix(6.123234e-17 -1 1 6.123234e-17 220.7205 257.5725)" class="st0" width="7.3" height="21.61"/>
		
			<rect x="235.49" y="-4.87" transform="matrix(6.123234e-17 -1 1 6.123234e-17 233.2161 245.0768)" class="st0" width="7.3" height="21.61"/>
		
			<rect x="235.49" y="20.12" transform="matrix(6.123234e-17 -1 1 6.123234e-17 208.2249 270.0681)" class="st0" width="7.3" height="21.61"/>
		<polygon class="st0" points="94.27,34.57 89.29,34.57 86.96,28.27 86.96,2.28 94.27,2.28 		"/>
		<polygon class="st0" points="59.3,8.43 42.9,8.43 42.9,2.28 61.3,2.28 		"/>
		<polygon class="st0" points="55.11,20.56 42.9,20.56 42.9,14.41 57.1,14.41 		"/>
		<polygon class="st0" points="56.15,28.86 56.15,34.5 62.69,34.5 69.57,9.97 73.08,21.67 68.33,21.67 66.61,27.65 74.84,27.65 
			76.83,34.5 85.23,34.5 73.74,2.28 65.38,2.28 		"/>
		<path class="st0" d="M109.47,16.9c0.45,0.36,0.84,0.66,1.22,0.97c4.17,3.32,4.95,8.4,1.92,12.79c-1.59,2.31-3.78,3.65-6.64,3.69
			c-2.84,0.05-9.62,0.06-9.62,0.06l0.05-5.98c0,0,3.35,0.08,4.93-0.03c1.14-0.07,2.31-0.11,3.37-0.51c1.73-0.65,2.55-2.46,2.2-4.18
			c-0.38-1.91-1.76-3.12-3.67-3.15c-2.24-0.03-4.47-0.01-6.81-0.01c0-1.96,0-3.89,0-6.02c1.67,0,3.34,0,5,0c0.56,0,1.12,0.01,1.68,0
			c1.84-0.05,3.06-1.22,3.09-2.96c0.03-1.77-1.12-3.06-2.93-3.13c-1.84-0.08-3.68-0.02-5.52-0.02c-0.43,0-0.85,0-1.35,0
			c0-2.1,0-4.03,0-6.14c5.62,0,8.65-0.13,10.99,0.64c4.29,1.1,7.05,5.3,5.77,9.87C112.57,14.67,111.31,15.93,109.47,16.9"/>
		<path class="st0" d="M127.97,22.47c0-1.92,0-3.67,0-5.69c1.64,0,0.7-0.01,4.87-0.01s5.15-2.32,5.05-4.51
			c-0.11-2.19-1.95-4.09-4.32-4.09c-1.83,0-3.66-0.01-5.6-0.01c0-1.96,0-3.84,0-5.89c3.67,0.06,7.35-0.48,10.9,0.88
			c2.93,1.13,5.03,3.1,5.89,6.17c1.06,3.78-1.5,8.49-5.2,9.55c2.95,1.83,3.96,4.61,4.28,7.72c0.32,3.1,0.85,4.69,2.64,7.9
			c-2.54,0-7.62,0-7.62,0c-1.34-2.34-1.48-2.74-2.25-6.73s-2.09-5.27-3.71-5.28C131.31,22.46,129.72,22.47,127.97,22.47z"/>
		<path class="st0" d="M194.77,29.68l-5.44,5.5L186.96,33c-2.55,1.75-5.04,2.32-7.78,2.32c0-2.52,0-4.57,0-6.73
			c5.05-0.56,7.78-4.27,7.83-9.89c0.01-1.31-0.06-2.65-0.33-3.93c-0.88-4.03-3.09-6.79-7.52-7.24c0-2.04,0-4.02,0-6.1
			c2.16,0,4.17,0.41,6.07,1.26c5.61,2.49,8.39,7.04,9.23,12.92c0.54,3.81-0.22,8.49-2.18,11.69
			C192.28,27.31,194.11,29.09,194.77,29.68z"/>
		<path class="st0" d="M176.95,1.4v6.18c-3.91,0.46-6.33,2.8-7.31,6.47c-0.62,2.35-0.73,4.74-0.28,7.13
			c0.82,4.38,2.98,6.98,7.58,7.39c0,2.16,0,4.34,0,6.78c-1.35-0.24-2.69-0.34-3.96-0.72c-6.39-1.92-9.94-6.43-11.14-12.82
			c-0.83-4.44-0.28-8.78,1.97-12.76C166.67,4,171.17,1.72,176.95,1.4z"/>
		<path class="st0" d="M210.11,27.79c0,2.15,0,4.58,0,6.96c-3.84,0-6.53-0.88-8.78-3.53c-1.69-1.99-2.65-4.67-2.71-7.3
			s0-14.34,0-21.52c2.35,0,4.79,0,7.26,0c0.02,0.46-0.02,13.73,0,19.92C205.88,25.86,207.6,27.78,210.11,27.79z"/>
		<path class="st0" d="M211.91,27.79c0,2.15,0,4.58,0,6.96c3.84,0,6.53-0.88,8.78-3.53c1.69-1.99,2.65-4.67,2.71-7.3
			s0-14.34,0-21.52c-2.35,0-4.79,0-7.26,0c-0.02,0.46,0.02,13.73,0,19.92C216.14,25.86,214.42,27.78,211.91,27.79z"/>
	</g>
	<g>
		<path class="st0" d="M100.47,58.62h0.08l2.99-12.59h4.21l-4.63,17.03H97.9l-4.63-17.03h4.35L100.47,58.62z"/>
		<path class="st0" d="M110.37,46.03h4.07v17.03h-4.07V46.03z"/>
		<path class="st0" d="M128.03,57.69h0.06V46.03h3.73v17.03h-4.63l-4.97-11.92h-0.06v11.92h-3.73V46.03h4.69L128.03,57.69z"/>
		<path class="st0" d="M146.84,48.81h-4.41v14.21h-4.07V48.81h-4.41V46h12.88V48.81z"/>
		<path class="st0" d="M155.69,46l5.34,17.03h-4.24l-0.93-3.6h-5.37l-0.93,3.6h-4.24L150.66,46H155.69z M155.15,56.61l-1.95-7.65
			h-0.06l-1.95,7.65H155.15z"/>
		<path class="st0" d="M171.37,50.11c-0.08-0.33-0.22-0.64-0.41-0.92c-0.19-0.28-0.43-0.51-0.72-0.69
			c-0.29-0.18-0.65-0.27-1.06-0.27c-0.98,0-1.69,0.46-2.12,1.38c-0.43,0.92-0.65,2.45-0.65,4.58c0,1.02,0.04,1.94,0.11,2.77
			c0.08,0.83,0.21,1.53,0.41,2.11c0.2,0.58,0.48,1.03,0.85,1.33c0.37,0.31,0.84,0.46,1.43,0.46c0.25,0,0.51-0.05,0.81-0.17
			c0.29-0.11,0.56-0.28,0.82-0.5c0.25-0.22,0.47-0.5,0.64-0.85c0.17-0.34,0.25-0.74,0.25-1.2v-1.74h-2.68v-2.53h6.58
			c0,5.09,0.08,5.88-1.13,7.4c-1.64,2.06-2.89,2.04-6.16,2.04c-1.24,0-2.26-0.18-3.04-0.55s-1.39-0.93-1.84-1.69
			c-0.44-0.76-0.74-1.71-0.89-2.83c-0.15-1.12-0.23-2.42-0.23-3.9c0-1.43,0.11-2.69,0.32-3.77s0.59-1.98,1.12-2.71
			c0.53-0.72,1.22-1.27,2.09-1.63c0.87-0.37,1.95-0.55,3.25-0.55c2.22,0,3.82,0.46,4.8,1.39c0.98,0.93,1.47,2.26,1.47,4h-3.9
			C171.5,50.77,171.46,50.44,171.37,50.11z"/>
		<path class="st0" d="M190.13,48.85h-7.2v4.01h6.78v2.81h-6.78v4.58h7.49v2.81h-11.55V46.03h11.27V48.85z"/>
	</g>
</g>
</svg>
